<?xml version="1.0" standalone="no"?>
<!DOCTYPE svg PUBLIC "-//W3C//DTD SVG 20010904//EN"
 "http://www.w3.org/TR/2001/REC-SVG-20010904/DTD/svg10.dtd">
<svg version="1.0" xmlns="http://www.w3.org/2000/svg"
 width="1121.000000pt" height="1121.000000pt" viewBox="0 0 1121.000000 1121.000000"
 preserveAspectRatio="xMidYMid meet">
<metadata>
Created by potrace 1.14, written by Peter Selinger 2001-2017
</metadata>
<g transform="translate(0.000000,1121.000000) scale(0.100000,-0.100000)"
fill="#000000" stroke="none">
<path d="M5338 11204 c-2 -1 -53 -6 -113 -9 -61 -3 -130 -8 -155 -11 -25 -4
-61 -7 -80 -9 -19 -2 -55 -6 -80 -9 -25 -3 -63 -9 -85 -12 -22 -3 -49 -7 -60
-8 -11 -2 -42 -7 -70 -11 -27 -3 -58 -8 -67 -11 -19 -5 -41 -10 -89 -18 -47
-8 -78 -14 -97 -20 -9 -3 -35 -8 -56 -12 -22 -3 -51 -10 -65 -16 -14 -5 -26
-8 -26 -7 0 9 -285 -71 -470 -133 -136 -45 -136 -45 -150 -47 -5 -1 -20 -9
-32 -17 -13 -8 -23 -12 -23 -9 0 3 -10 0 -22 -7 -13 -6 -27 -13 -33 -14 -5 -1
-23 -8 -40 -15 -16 -7 -33 -13 -37 -13 -3 -1 -10 -4 -14 -8 -4 -5 -16 -8 -26
-8 -10 0 -18 -5 -18 -12 0 -6 -3 -9 -6 -5 -4 3 -26 -5 -50 -18 -24 -14 -46
-25 -49 -25 -22 -1 -313 -143 -440 -215 -27 -16 -59 -33 -70 -39 -11 -6 -22
-13 -25 -16 -3 -3 -18 -12 -35 -20 -16 -8 -51 -29 -77 -47 -26 -18 -52 -33
-58 -33 -5 0 -10 -4 -10 -10 0 -5 -5 -10 -10 -10 -13 0 -194 -120 -198 -132
-2 -4 -10 -8 -18 -8 -8 0 -14 -3 -14 -8 0 -4 -16 -16 -35 -26 -19 -11 -35 -23
-35 -28 0 -4 -5 -8 -10 -8 -6 0 -16 -5 -23 -10 -59 -50 -76 -63 -104 -81 -18
-11 -33 -25 -33 -30 0 -5 -8 -13 -19 -17 -10 -4 -40 -25 -66 -47 -26 -22 -57
-48 -69 -58 -68 -59 -135 -119 -186 -167 -31 -30 -75 -71 -96 -91 -81 -76
-269 -277 -353 -379 -12 -14 -31 -36 -44 -50 -13 -14 -54 -65 -92 -115 -38
-49 -73 -94 -77 -100 -45 -57 -193 -268 -214 -305 -8 -14 -32 -52 -54 -85 -21
-33 -73 -121 -115 -195 -42 -74 -80 -142 -85 -150 -58 -96 -209 -427 -282
-615 -79 -206 -201 -596 -222 -710 -3 -16 -10 -48 -15 -70 -5 -22 -12 -52 -15
-68 -2 -15 -7 -35 -10 -45 -6 -20 -15 -66 -21 -107 -8 -53 -14 -89 -25 -145
-6 -30 -13 -75 -16 -100 -2 -25 -6 -58 -9 -75 -2 -16 -7 -57 -10 -90 -4 -33
-9 -73 -11 -89 -19 -168 -25 -692 -10 -896 10 -139 15 -198 21 -240 5 -40 14
-107 21 -165 2 -22 7 -51 9 -65 3 -14 7 -41 10 -60 17 -107 35 -199 59 -303 9
-37 18 -81 21 -99 3 -17 8 -34 10 -38 2 -3 6 -17 8 -31 3 -13 17 -67 32 -119
15 -52 28 -102 30 -110 7 -35 119 -358 136 -394 11 -22 19 -43 19 -47 0 -4 5
-20 11 -36 6 -15 10 -29 10 -31 -1 -1 6 -16 14 -32 8 -16 16 -33 16 -37 0 -5
9 -22 20 -39 10 -17 16 -34 12 -37 -3 -4 -1 -7 5 -7 7 0 11 -3 10 -7 -1 -5 5
-21 12 -38 7 -16 14 -32 14 -35 2 -11 168 -336 186 -365 11 -16 29 -48 40 -70
29 -56 49 -90 103 -173 26 -40 47 -77 47 -82 0 -6 5 -10 10 -10 6 0 10 -5 10
-10 0 -12 41 -73 53 -78 4 -2 7 -8 7 -14 0 -5 6 -16 12 -23 29 -32 38 -45 38
-53 0 -4 8 -17 18 -28 9 -10 26 -32 36 -49 20 -31 23 -35 59 -76 12 -14 29
-37 37 -49 8 -13 25 -34 37 -47 13 -13 23 -27 23 -31 0 -4 8 -15 18 -23 9 -9
31 -33 47 -54 17 -21 39 -48 50 -61 11 -12 38 -44 60 -70 54 -66 417 -428 484
-484 30 -25 62 -52 71 -61 66 -63 345 -279 359 -279 5 0 11 -4 13 -8 6 -17
329 -232 348 -232 4 0 10 -4 12 -9 7 -18 415 -237 568 -305 36 -16 94 -42 129
-59 35 -16 69 -30 75 -32 6 -1 22 -7 36 -13 222 -94 606 -214 885 -276 116
-26 375 -73 441 -81 21 -2 77 -9 124 -15 47 -5 105 -12 130 -15 264 -29 943
-23 1140 10 25 4 91 12 160 20 35 4 81 11 130 20 14 3 41 7 60 10 47 8 80 14
110 20 14 3 40 8 59 11 19 3 45 10 58 15 13 5 23 7 23 4 0 -2 15 1 33 6 17 5
45 12 61 15 16 3 61 14 100 25 39 11 78 22 86 24 54 12 337 101 390 122 8 3
20 7 25 9 6 1 24 8 40 15 17 7 32 13 35 13 3 1 10 4 15 7 6 4 28 12 50 19 22
7 55 19 72 27 18 7 35 13 38 13 3 0 21 9 40 20 20 11 42 20 50 20 8 0 15 5 15
12 0 6 3 8 6 5 4 -4 19 0 33 8 14 7 98 48 186 91 88 42 163 82 167 88 4 6 8 7
8 2 0 -5 8 -3 18 5 19 16 53 36 97 58 17 8 32 17 35 20 3 4 26 18 53 31 26 14
47 28 47 31 0 4 11 10 25 13 14 4 25 11 25 16 0 6 7 10 15 10 8 0 15 4 15 9 0
5 11 12 25 15 14 4 25 11 25 16 0 6 7 10 15 10 8 0 15 5 15 10 0 6 7 10 15 10
8 0 15 5 15 10 0 6 5 10 10 10 6 0 16 4 23 10 32 26 108 80 113 80 2 0 10 5
17 10 45 38 61 50 67 50 3 0 20 12 38 28 17 15 43 36 57 46 14 11 35 27 45 35
10 9 31 25 46 36 15 11 40 31 55 45 15 14 47 41 70 60 76 63 122 104 179 160
31 30 83 80 116 111 58 56 223 230 264 279 33 39 104 122 115 134 6 6 33 40
60 76 28 36 52 67 55 70 12 12 122 162 168 230 29 41 55 80 59 85 5 6 28 42
52 80 24 39 51 81 61 95 15 23 30 49 108 185 12 22 35 65 50 95 15 30 29 57
32 60 9 9 103 198 102 207 0 4 3 13 8 18 23 29 205 471 215 526 2 11 9 27 16
35 6 8 9 14 6 14 -5 0 12 58 30 100 3 8 7 20 9 25 1 6 22 82 47 170 44 157
102 406 111 475 3 19 12 72 20 118 8 46 18 106 21 135 3 29 8 63 10 77 2 14 7
50 10 80 3 30 7 71 10 90 12 101 18 263 19 515 0 317 -8 456 -39 711 -3 27 -8
67 -11 89 -4 38 -7 53 -19 115 -3 14 -7 41 -10 60 -3 19 -7 44 -9 55 -14 66
-38 187 -41 202 -2 10 -4 18 -5 18 -2 0 -6 18 -15 64 -3 19 -8 37 -10 41 -2 3
-6 18 -9 33 -4 15 -8 39 -11 54 -3 14 -11 36 -17 47 -6 12 -11 22 -10 24 1 1
2 3 1 5 0 1 -2 11 -4 22 -5 28 -40 141 -63 205 -3 8 -6 20 -7 25 -8 32 -104
295 -136 370 -7 17 -12 33 -11 38 1 4 -3 7 -8 7 -5 0 -9 3 -8 8 1 8 -12 43
-42 104 -11 23 -20 48 -20 55 0 7 -5 13 -12 13 -6 0 -9 3 -5 6 6 7 -140 301
-160 322 -7 7 -13 20 -13 27 0 7 -6 20 -13 27 -7 7 -20 28 -28 46 -7 17 -17
32 -21 32 -5 0 -8 6 -8 13 0 7 -16 36 -35 64 -19 29 -35 56 -35 61 0 5 -9 17
-20 27 -11 10 -20 22 -20 27 0 11 -52 92 -62 96 -5 2 -8 10 -8 17 0 7 -3 15
-7 17 -5 2 -26 30 -48 63 -22 33 -46 66 -53 73 -6 8 -17 23 -23 35 -13 23 -16
26 -64 82 -19 22 -35 43 -35 47 0 4 -10 18 -22 32 -13 14 -34 40 -48 57 -14
18 -54 67 -90 109 -36 41 -76 88 -90 104 -14 16 -54 59 -90 96 -36 37 -81 85
-101 106 -55 59 -228 220 -343 319 -78 66 -93 79 -166 135 -25 19 -47 37 -50
40 -3 3 -36 28 -73 55 -38 28 -81 60 -97 73 -15 12 -32 22 -38 22 -6 0 -12 4
-14 9 -1 4 -34 29 -73 55 -38 25 -78 52 -88 59 -31 21 -119 74 -197 118 -41
23 -86 50 -100 59 -38 26 -360 190 -360 183 0 -3 -6 -1 -12 5 -38 30 -396 175
-603 243 -228 75 -617 177 -745 194 -14 2 -79 13 -145 24 -66 11 -147 23 -180
26 -33 4 -71 8 -85 10 -14 2 -63 6 -110 10 -47 4 -101 9 -120 12 -40 5 -647
13 -652 7z"/>
</g>
</svg>
